<svg width="178" height="25" viewBox="0 0 178 25" fill="none" xmlns="http://www.w3.org/2000/svg">
<path d="M0.618127 24L7.65813 0.959999H14.1541L21.1941 24H16.7141L10.4421 3.68H11.2741L5.09813 24H0.618127ZM4.84213 19.2V15.136H17.0021V19.2H4.84213ZM23.1019 24V0.959999H27.4539V24H23.1019ZM40.9289 24L34.1769 0.959999H38.7529L43.0729 16.8L47.3929 0.991999L51.9689 0.959999L56.2889 16.8L60.6089 0.959999H65.1849L58.4329 24H54.1449L49.6809 8.448L45.2169 24H40.9289ZM69.8356 24.48C68.5983 24.48 67.5476 24.2453 66.6836 23.776C65.8303 23.296 65.1796 22.6613 64.7316 21.872C64.2943 21.072 64.0756 20.192 64.0756 19.232C64.0756 18.432 64.1983 17.7013 64.4436 17.04C64.689 16.3787 65.0836 15.7973 65.6276 15.296C66.1823 14.784 66.9236 14.3573 67.8516 14.016C68.4916 13.7813 69.2543 13.5733 70.1396 13.392C71.025 13.2107 72.0276 13.04 73.1476 12.88C74.2676 12.7093 75.4996 12.5227 76.8436 12.32L75.2756 13.184C75.2756 12.16 75.0303 11.408 74.5396 10.928C74.049 10.448 73.2276 10.208 72.0756 10.208C71.4356 10.208 70.769 10.3627 70.0756 10.672C69.3823 10.9813 68.897 11.5307 68.6196 12.32L64.6836 11.072C65.121 9.64267 65.9423 8.48 67.1476 7.584C68.353 6.688 69.9956 6.24 72.0756 6.24C73.601 6.24 74.9556 6.47467 76.1396 6.944C77.3236 7.41333 78.2196 8.224 78.8276 9.376C79.169 10.016 79.3716 10.656 79.4356 11.296C79.4996 11.936 79.5316 12.6507 79.5316 13.44V24H75.7236V20.448L76.2676 21.184C75.425 22.3467 74.513 23.1893 73.5316 23.712C72.561 24.224 71.329 24.48 69.8356 24.48ZM70.7636 21.056C71.5636 21.056 72.2356 20.9173 72.7796 20.64C73.3343 20.352 73.7716 20.0267 74.0916 19.664C74.4223 19.3013 74.6463 18.9973 74.7636 18.752C74.9876 18.2827 75.1156 17.7387 75.1476 17.12C75.1903 16.4907 75.2116 15.968 75.2116 15.552L76.4916 15.872C75.201 16.0853 74.1556 16.2667 73.3556 16.416C72.5556 16.5547 71.9103 16.6827 71.4196 16.8C70.929 16.9173 70.497 17.0453 70.1236 17.184C69.697 17.3547 69.3503 17.5413 69.0836 17.744C68.8276 17.936 68.6356 18.1493 68.5076 18.384C68.3903 18.6187 68.3316 18.88 68.3316 19.168C68.3316 19.5627 68.4276 19.904 68.6196 20.192C68.8223 20.4693 69.105 20.6827 69.4676 20.832C69.8303 20.9813 70.2623 21.056 70.7636 21.056ZM82.4119 24V6.72H86.2519V10.944L85.8359 10.4C86.0599 9.80267 86.3585 9.25867 86.7319 8.768C87.1052 8.27733 87.5639 7.872 88.1079 7.552C88.5239 7.296 88.9772 7.09867 89.4679 6.96C89.9585 6.81067 90.4652 6.72 90.9879 6.688C91.5105 6.64533 92.0332 6.656 92.5559 6.72V10.784C92.0759 10.6347 91.5159 10.5867 90.8759 10.64C90.2465 10.6827 89.6759 10.8267 89.1639 11.072C88.6519 11.3067 88.2199 11.6213 87.8679 12.016C87.5159 12.4 87.2492 12.8587 87.0679 13.392C86.8865 13.9147 86.7959 14.5067 86.7959 15.168V24H82.4119ZM101.015 24.48C99.4255 24.48 98.0335 24.08 96.8389 23.28C95.6442 22.48 94.7109 21.392 94.0389 20.016C93.3775 18.64 93.0469 17.088 93.0469 15.36C93.0469 13.6 93.3829 12.0373 94.0549 10.672C94.7375 9.296 95.6922 8.21333 96.9189 7.424C98.1455 6.63467 99.5855 6.24 101.239 6.24C102.882 6.24 104.263 6.64 105.383 7.44C106.503 8.24 107.351 9.328 107.927 10.704C108.503 12.08 108.791 13.632 108.791 15.36C108.791 17.088 108.498 18.64 107.911 20.016C107.335 21.392 106.471 22.48 105.319 23.28C104.167 24.08 102.732 24.48 101.015 24.48ZM101.719 20.608C102.69 20.608 103.463 20.3893 104.039 19.952C104.626 19.5147 105.047 18.9013 105.303 18.112C105.559 17.3227 105.687 16.4053 105.687 15.36C105.687 14.3147 105.559 13.3973 105.303 12.608C105.047 11.8187 104.636 11.2053 104.071 10.768C103.516 10.3307 102.786 10.112 101.879 10.112C100.908 10.112 100.108 10.352 99.4789 10.832C98.8602 11.3013 98.4015 11.936 98.1029 12.736C97.8042 13.5253 97.6549 14.4 97.6549 15.36C97.6549 16.3307 97.7989 17.216 98.0869 18.016C98.3749 18.8053 98.8175 19.4347 99.4149 19.904C100.012 20.3733 100.78 20.608 101.719 20.608ZM105.687 24V12.16H105.143V0.959999H109.527V24H105.687ZM112.727 24V6.72H116.567V10.944L116.151 10.4C116.375 9.80267 116.674 9.25867 117.047 8.768C117.42 8.27733 117.879 7.872 118.423 7.552C118.839 7.296 119.292 7.09867 119.783 6.96C120.274 6.81067 120.78 6.72 121.303 6.688C121.826 6.64533 122.348 6.656 122.871 6.72V10.784C122.391 10.6347 121.831 10.5867 121.191 10.64C120.562 10.6827 119.991 10.8267 119.479 11.072C118.967 11.3067 118.535 11.6213 118.183 12.016C117.831 12.4 117.564 12.8587 117.383 13.392C117.202 13.9147 117.111 14.5067 117.111 15.168V24H112.727ZM132.098 24.48C130.359 24.48 128.834 24.0907 127.522 23.312C126.21 22.5333 125.186 21.4613 124.45 20.096C123.725 18.72 123.362 17.1413 123.362 15.36C123.362 13.5573 123.735 11.9733 124.482 10.608C125.229 9.232 126.258 8.16 127.57 7.392C128.882 6.624 130.391 6.24 132.098 6.24C133.837 6.24 135.362 6.62933 136.674 7.408C137.997 8.18667 139.026 9.264 139.762 10.64C140.498 12.0053 140.866 13.5787 140.866 15.36C140.866 17.152 140.493 18.736 139.746 20.112C139.01 21.4773 137.981 22.5493 136.658 23.328C135.346 24.096 133.826 24.48 132.098 24.48ZM132.098 20.416C133.495 20.416 134.535 19.9467 135.218 19.008C135.911 18.0587 136.258 16.8427 136.258 15.36C136.258 13.824 135.906 12.5973 135.202 11.68C134.509 10.7627 133.474 10.304 132.098 10.304C131.149 10.304 130.37 10.5173 129.762 10.944C129.154 11.3707 128.701 11.9627 128.402 12.72C128.114 13.4773 127.97 14.3573 127.97 15.36C127.97 16.9067 128.317 18.1387 129.01 19.056C129.714 19.9627 130.743 20.416 132.098 20.416ZM151.584 24.48C149.867 24.48 148.432 24.08 147.28 23.28C146.128 22.48 145.259 21.392 144.672 20.016C144.096 18.64 143.808 17.088 143.808 15.36C143.808 13.632 144.096 12.08 144.672 10.704C145.248 9.328 146.096 8.24 147.216 7.44C148.336 6.64 149.718 6.24 151.36 6.24C153.014 6.24 154.454 6.63467 155.68 7.424C156.907 8.21333 157.856 9.296 158.528 10.672C159.211 12.0373 159.552 13.6 159.552 15.36C159.552 17.088 159.216 18.64 158.544 20.016C157.883 21.392 156.955 22.48 155.76 23.28C154.566 24.08 153.174 24.48 151.584 24.48ZM143.072 24V0.959999H147.456V12.16H146.912V24H143.072ZM150.88 20.608C151.819 20.608 152.587 20.3733 153.184 19.904C153.782 19.4347 154.224 18.8053 154.512 18.016C154.8 17.216 154.944 16.3307 154.944 15.36C154.944 14.4 154.795 13.5253 154.496 12.736C154.198 11.936 153.734 11.3013 153.104 10.832C152.486 10.352 151.691 10.112 150.72 10.112C149.814 10.112 149.078 10.3307 148.512 10.768C147.958 11.2053 147.552 11.8187 147.296 12.608C147.04 13.3973 146.912 14.3147 146.912 15.36C146.912 16.4053 147.04 17.3227 147.296 18.112C147.552 18.9013 147.968 19.5147 148.544 19.952C149.131 20.3893 149.91 20.608 150.88 20.608ZM169.825 24.48C168.054 24.48 166.492 24.1013 165.137 23.344C163.793 22.576 162.737 21.5253 161.969 20.192C161.212 18.848 160.833 17.312 160.833 15.584C160.833 13.696 161.206 12.0533 161.953 10.656C162.7 9.25867 163.729 8.176 165.041 7.408C166.353 6.62933 167.862 6.24 169.569 6.24C171.382 6.24 172.924 6.66667 174.193 7.52C175.462 8.37333 176.401 9.57333 177.009 11.12C177.617 12.6667 177.83 14.4853 177.649 16.576H173.345V14.976C173.345 13.216 173.062 11.952 172.497 11.184C171.942 10.4053 171.03 10.016 169.761 10.016C168.278 10.016 167.185 10.4693 166.481 11.376C165.788 12.272 165.441 13.6 165.441 15.36C165.441 16.9707 165.788 18.2187 166.481 19.104C167.185 19.9787 168.214 20.416 169.569 20.416C170.422 20.416 171.153 20.2293 171.761 19.856C172.369 19.4827 172.833 18.944 173.153 18.24L177.505 19.488C176.854 21.0667 175.825 22.2933 174.417 23.168C173.02 24.0427 171.489 24.48 169.825 24.48ZM164.097 16.576V13.344H175.553V16.576H164.097Z" fill="black"/>
</svg>
